<?xml version="1.0" encoding="UTF-8" standalone="no"?>
<svg
   width="291.020000" 
   height="56.000000"
   version="1.1"
   xmlns:svg="http://www.w3.org/2000/svg"
   xmlns="http://www.w3.org/2000/svg">
  <g id="layer001_datatype000">
    <path style="fill:#ff9d9d"
          d="M 255.761000 38.196000 L 255.761000 38.058000 L 255.762000 37.920000 L 255.764000 37.783000 L 255.768000 37.507000 L 255.771000 37.370000 L 255.775000 37.233000 L 255.779000 37.095000 L 255.785000 36.958000 L 255.791000 36.822000 L 255.798000 36.685000 L 255.806000 36.548000 L 255.815000 36.412000 L 255.825000 36.276000 L 255.849000 36.004000 L 255.863000 35.869000 L 255.879000 35.734000 L 255.896000 35.599000 L 255.914000 35.465000 L 255.934000 35.330000 L 255.956000 35.197000 L 255.979000 35.063000 L 256.004000 34.930000 L 256.030000 34.798000 L 256.059000 34.666000 L 256.090000 34.534000 L 256.122000 34.404000 L 256.157000 34.273000 L 256.193000 34.144000 L 256.232000 34.015000 L 256.273000 33.887000 L 256.316000 33.760000 L 256.361000 33.634000 L 256.409000 33.509000 L 256.459000 33.385000 L 256.511000 33.262000 L 256.566000 33.140000 L 256.623000 33.019000 L 256.683000 32.899000 L 256.745000 32.781000 L 256.809000 32.663000 L 256.875000 32.547000 L 256.944000 32.433000 L 257.015000 32.319000 L 257.088000 32.207000 L 257.164000 32.097000 L 257.241000 31.988000 L 257.321000 31.881000 L 257.403000 31.775000 L 257.486000 31.671000 L 257.572000 31.568000 L 257.660000 31.467000 L 257.750000 31.368000 L 257.842000 31.271000 L 257.935000 31.175000 L 258.031000 31.082000 L 258.128000 30.990000 L 258.227000 30.900000 L 258.328000 30.812000 L 258.431000 30.726000 L 258.535000 30.643000 L 258.641000 30.561000 L 258.748000 30.481000 L 258.857000 30.404000 L 258.967000 30.328000 L 259.079000 30.255000 L 259.193000 30.184000 L 259.307000 30.115000 L 259.423000 30.049000 L 259.541000 29.985000 L 259.659000 29.923000 L 259.779000 29.863000 L 259.900000 29.806000 L 260.022000 29.751000 L 260.145000 29.699000 L 260.269000 29.649000 L 260.394000 29.601000 L 260.520000 29.556000 L 260.647000 29.513000 L 260.775000 29.472000 L 260.904000 29.433000 L 261.033000 29.397000 L 261.164000 29.362000 L 261.294000 29.330000 L 261.426000 29.299000 L 261.558000 29.270000 L 261.690000 29.244000 L 261.823000 29.219000 L 261.957000 29.196000 L 262.090000 29.174000 L 262.225000 29.154000 L 262.359000 29.136000 L 262.494000 29.119000 L 262.629000 29.103000 L 262.764000 29.089000 L 263.036000 29.065000 L 263.172000 29.055000 L 263.308000 29.046000 L 263.445000 29.038000 L 263.582000 29.031000 L 263.718000 29.025000 L 263.855000 29.019000 L 263.993000 29.015000 L 264.130000 29.011000 L 264.267000 29.008000 L 264.543000 29.004000 L 264.680000 29.002000 L 264.818000 29.001000 L 264.956000 29.001000 L 265.095000 29.000000 L 265.520000 29.000000 L 275.520000 29.250000 L 275.520000 29.375000 L 281.020000 29.375000 L 281.020000 29.250000 L 291.020000 29.000000 L 291.020000 28.500000 L 281.020000 28.250000 L 281.020000 28.000000 L 291.020000 27.750000 L 291.020000 27.250000 L 281.020000 27.000000 L 281.020000 26.875000 L 275.520000 26.875000 L 275.520000 27.000000 L 265.520000 27.250000 L 265.095000 27.250000 L 264.956000 27.249000 L 264.818000 27.249000 L 264.680000 27.248000 L 264.543000 27.246000 L 264.267000 27.242000 L 264.130000 27.239000 L 263.993000 27.235000 L 263.855000 27.231000 L 263.718000 27.225000 L 263.582000 27.219000 L 263.445000 27.212000 L 263.308000 27.204000 L 263.172000 27.195000 L 263.036000 27.185000 L 262.764000 27.161000 L 262.629000 27.147000 L 262.494000 27.131000 L 262.359000 27.114000 L 262.225000 27.096000 L 262.090000 27.076000 L 261.957000 27.054000 L 261.823000 27.031000 L 261.690000 27.006000 L 261.558000 26.980000 L 261.426000 26.951000 L 261.294000 26.920000 L 261.164000 26.888000 L 261.033000 26.853000 L 260.904000 26.817000 L 260.775000 26.778000 L 260.647000 26.737000 L 260.520000 26.694000 L 260.394000 26.649000 L 260.269000 26.601000 L 260.145000 26.551000 L 260.022000 26.499000 L 259.900000 26.444000 L 259.779000 26.387000 L 259.659000 26.327000 L 259.541000 26.265000 L 259.423000 26.201000 L 259.307000 26.135000 L 259.193000 26.066000 L 259.079000 25.995000 L 258.967000 25.922000 L 258.857000 25.846000 L 258.748000 25.769000 L 258.641000 25.689000 L 258.535000 25.607000 L 258.431000 25.524000 L 258.328000 25.438000 L 258.227000 25.350000 L 258.128000 25.260000 L 258.031000 25.168000 L 257.935000 25.075000 L 257.842000 24.979000 L 257.750000 24.882000 L 257.660000 24.783000 L 257.572000 24.682000 L 257.486000 24.579000 L 257.403000 24.475000 L 257.321000 24.369000 L 257.241000 24.262000 L 257.164000 24.153000 L 257.088000 24.043000 L 257.015000 23.931000 L 256.944000 23.817000 L 256.875000 23.703000 L 256.809000 23.587000 L 256.745000 23.469000 L 256.683000 23.351000 L 256.623000 23.231000 L 256.566000 23.110000 L 256.511000 22.988000 L 256.459000 22.865000 L 256.409000 22.741000 L 256.361000 22.616000 L 256.316000 22.490000 L 256.273000 22.363000 L 256.232000 22.235000 L 256.193000 22.106000 L 256.157000 21.977000 L 256.122000 21.846000 L 256.090000 21.716000 L 256.059000 21.584000 L 256.030000 21.452000 L 256.004000 21.320000 L 255.979000 21.187000 L 255.956000 21.053000 L 255.934000 20.920000 L 255.914000 20.785000 L 255.896000 20.651000 L 255.879000 20.516000 L 255.863000 20.381000 L 255.849000 20.246000 L 255.825000 19.974000 L 255.815000 19.838000 L 255.806000 19.702000 L 255.798000 19.565000 L 255.791000 19.428000 L 255.785000 19.292000 L 255.779000 19.155000 L 255.775000 19.017000 L 255.771000 18.880000 L 255.768000 18.743000 L 255.764000 18.467000 L 255.762000 18.330000 L 255.761000 18.192000 L 255.761000 18.054000 L 255.760000 17.915000 L 255.760000 15.084000 L 255.759000 14.944000 L 255.759000 14.805000 L 255.758000 14.666000 L 255.756000 14.527000 L 255.752000 14.247000 L 255.749000 14.108000 L 255.745000 13.968000 L 255.735000 13.688000 L 255.729000 13.547000 L 255.713000 13.267000 L 255.704000 13.127000 L 255.693000 12.986000 L 255.681000 12.846000 L 255.668000 12.705000 L 255.654000 12.565000 L 255.638000 12.425000 L 255.620000 12.284000 L 255.601000 12.144000 L 255.580000 12.004000 L 255.558000 11.864000 L 255.533000 11.724000 L 255.507000 11.585000 L 255.479000 11.445000 L 255.449000 11.306000 L 255.417000 11.168000 L 255.382000 11.029000 L 255.346000 10.891000 L 255.307000 10.754000 L 255.266000 10.617000 L 255.222000 10.481000 L 255.176000 10.345000 L 255.128000 10.211000 L 255.077000 10.077000 L 255.023000 9.944000 L 254.967000 9.812000 L 254.908000 9.681000 L 254.847000 9.551000 L 254.783000 9.422000 L 254.716000 9.295000 L 254.647000 9.169000 L 254.576000 9.045000 L 254.502000 8.921000 L 254.426000 8.800000 L 254.347000 8.680000 L 254.266000 8.561000 L 254.183000 8.444000 L 254.098000 8.329000 L 254.010000 8.215000 L 253.920000 8.103000 L 253.828000 7.993000 L 253.734000 7.885000 L 253.637000 7.779000 L 253.539000 7.674000 L 253.438000 7.572000 L 253.336000 7.471000 L 253.231000 7.373000 L 253.125000 7.276000 L 253.017000 7.182000 L 252.907000 7.090000 L 252.795000 7.000000 L 252.681000 6.912000 L 252.566000 6.827000 L 252.449000 6.744000 L 252.330000 6.663000 L 252.210000 6.584000 L 252.089000 6.508000 L 251.965000 6.434000 L 251.841000 6.363000 L 251.715000 6.294000 L 251.588000 6.227000 L 251.459000 6.163000 L 251.329000 6.102000 L 251.198000 6.043000 L 251.066000 5.987000 L 250.933000 5.933000 L 250.799000 5.882000 L 250.665000 5.834000 L 250.529000 5.788000 L 250.393000 5.744000 L 250.256000 5.703000 L 250.119000 5.664000 L 249.981000 5.628000 L 249.842000 5.593000 L 249.704000 5.561000 L 249.565000 5.531000 L 249.425000 5.503000 L 249.286000 5.477000 L 249.146000 5.452000 L 249.006000 5.430000 L 248.866000 5.409000 L 248.726000 5.390000 L 248.585000 5.372000 L 248.445000 5.356000 L 248.305000 5.342000 L 248.164000 5.329000 L 248.024000 5.317000 L 247.883000 5.306000 L 247.743000 5.297000 L 247.463000 5.281000 L 247.322000 5.275000 L 247.042000 5.265000 L 246.902000 5.261000 L 246.763000 5.258000 L 246.483000 5.254000 L 246.344000 5.252000 L 246.205000 5.251000 L 246.066000 5.251000 L 245.926000 5.250000 L 45.084000 5.250000 L 44.944000 5.251000 L 44.805000 5.251000 L 44.666000 5.252000 L 44.527000 5.254000 L 44.247000 5.258000 L 44.108000 5.261000 L 43.968000 5.265000 L 43.688000 5.275000 L 43.547000 5.281000 L 43.267000 5.297000 L 43.127000 5.306000 L 42.986000 5.317000 L 42.846000 5.329000 L 42.705000 5.342000 L 42.565000 5.356000 L 42.425000 5.372000 L 42.284000 5.390000 L 42.144000 5.409000 L 42.004000 5.430000 L 41.864000 5.452000 L 41.724000 5.477000 L 41.585000 5.503000 L 41.445000 5.531000 L 41.306000 5.561000 L 41.168000 5.593000 L 41.029000 5.628000 L 40.891000 5.664000 L 40.754000 5.703000 L 40.617000 5.744000 L 40.481000 5.788000 L 40.345000 5.834000 L 40.211000 5.882000 L 40.077000 5.933000 L 39.944000 5.987000 L 39.812000 6.043000 L 39.681000 6.102000 L 39.551000 6.163000 L 39.422000 6.227000 L 39.295000 6.294000 L 39.169000 6.363000 L 39.045000 6.434000 L 38.921000 6.508000 L 38.800000 6.584000 L 38.680000 6.663000 L 38.561000 6.744000 L 38.444000 6.827000 L 38.329000 6.912000 L 38.215000 7.000000 L 38.103000 7.090000 L 37.993000 7.182000 L 37.885000 7.276000 L 37.779000 7.373000 L 37.674000 7.471000 L 37.572000 7.572000 L 37.471000 7.674000 L 37.373000 7.779000 L 37.276000 7.885000 L 37.182000 7.993000 L 37.090000 8.103000 L 37.000000 8.215000 L 36.912000 8.329000 L 36.827000 8.444000 L 36.744000 8.561000 L 36.663000 8.680000 L 36.584000 8.800000 L 36.508000 8.921000 L 36.434000 9.045000 L 36.363000 9.169000 L 36.294000 9.295000 L 36.227000 9.422000 L 36.163000 9.551000 L 36.102000 9.681000 L 36.043000 9.812000 L 35.987000 9.944000 L 35.933000 10.077000 L 35.882000 10.211000 L 35.834000 10.345000 L 35.788000 10.481000 L 35.744000 10.617000 L 35.703000 10.754000 L 35.664000 10.891000 L 35.628000 11.029000 L 35.593000 11.168000 L 35.561000 11.306000 L 35.531000 11.445000 L 35.503000 11.585000 L 35.477000 11.724000 L 35.452000 11.864000 L 35.430000 12.004000 L 35.409000 12.144000 L 35.390000 12.284000 L 35.372000 12.425000 L 35.356000 12.565000 L 35.342000 12.705000 L 35.329000 12.846000 L 35.317000 12.986000 L 35.306000 13.127000 L 35.297000 13.267000 L 35.281000 13.547000 L 35.275000 13.688000 L 35.265000 13.968000 L 35.261000 14.108000 L 35.258000 14.247000 L 35.254000 14.527000 L 35.252000 14.666000 L 35.251000 14.805000 L 35.251000 14.944000 L 35.250000 15.084000 L 35.250000 17.915000 L 35.249000 18.054000 L 35.249000 18.192000 L 35.248000 18.330000 L 35.246000 18.467000 L 35.242000 18.743000 L 35.239000 18.880000 L 35.235000 19.017000 L 35.231000 19.155000 L 35.225000 19.292000 L 35.219000 19.428000 L 35.212000 19.565000 L 35.204000 19.702000 L 35.195000 19.838000 L 35.185000 19.974000 L 35.161000 20.246000 L 35.147000 20.381000 L 35.131000 20.516000 L 35.114000 20.651000 L 35.096000 20.785000 L 35.076000 20.920000 L 35.054000 21.053000 L 35.031000 21.187000 L 35.006000 21.320000 L 34.980000 21.452000 L 34.951000 21.584000 L 34.920000 21.716000 L 34.888000 21.846000 L 34.853000 21.977000 L 34.817000 22.106000 L 34.778000 22.235000 L 34.737000 22.363000 L 34.694000 22.490000 L 34.649000 22.616000 L 34.601000 22.741000 L 34.551000 22.865000 L 34.499000 22.988000 L 34.444000 23.110000 L 34.387000 23.231000 L 34.327000 23.351000 L 34.265000 23.469000 L 34.201000 23.587000 L 34.135000 23.703000 L 34.066000 23.817000 L 33.995000 23.931000 L 33.922000 24.043000 L 33.846000 24.153000 L 33.769000 24.262000 L 33.689000 24.369000 L 33.607000 24.475000 L 33.524000 24.579000 L 33.438000 24.682000 L 33.350000 24.783000 L 33.260000 24.882000 L 33.168000 24.979000 L 33.075000 25.075000 L 32.979000 25.168000 L 32.882000 25.260000 L 32.783000 25.350000 L 32.682000 25.438000 L 32.579000 25.524000 L 32.475000 25.607000 L 32.369000 25.689000 L 32.262000 25.769000 L 32.153000 25.846000 L 32.043000 25.922000 L 31.931000 25.995000 L 31.817000 26.066000 L 31.703000 26.135000 L 31.587000 26.201000 L 31.469000 26.265000 L 31.351000 26.327000 L 31.231000 26.387000 L 31.110000 26.444000 L 30.988000 26.499000 L 30.865000 26.551000 L 30.741000 26.601000 L 30.616000 26.649000 L 30.490000 26.694000 L 30.363000 26.737000 L 30.235000 26.778000 L 30.106000 26.817000 L 29.977000 26.853000 L 29.846000 26.888000 L 29.716000 26.920000 L 29.584000 26.951000 L 29.452000 26.980000 L 29.320000 27.006000 L 29.187000 27.031000 L 29.053000 27.054000 L 28.920000 27.076000 L 28.785000 27.096000 L 28.651000 27.114000 L 28.516000 27.131000 L 28.381000 27.147000 L 28.246000 27.161000 L 27.974000 27.185000 L 27.838000 27.195000 L 27.702000 27.204000 L 27.565000 27.212000 L 27.428000 27.219000 L 27.292000 27.225000 L 27.155000 27.231000 L 27.017000 27.235000 L 26.880000 27.239000 L 26.743000 27.242000 L 26.467000 27.246000 L 26.330000 27.248000 L 26.192000 27.249000 L 26.054000 27.249000 L 25.915000 27.250000 L 25.500000 27.250000 L 15.500000 27.000000 L 15.500000 26.875000 L 10.000000 26.875000 L 10.000000 27.000000 L 0.000000 27.250000 L 0.000000 27.750000 L 10.000000 28.000000 L 10.000000 28.250000 L 15.500000 28.250000 L 15.500000 28.000000 L 25.500000 27.750000 L 25.916000 27.750000 L 26.056000 27.749000 L 26.195000 27.749000 L 26.334000 27.748000 L 26.473000 27.746000 L 26.753000 27.742000 L 26.892000 27.739000 L 27.032000 27.735000 L 27.312000 27.725000 L 27.453000 27.719000 L 27.733000 27.703000 L 27.873000 27.694000 L 28.014000 27.683000 L 28.154000 27.671000 L 28.295000 27.658000 L 28.435000 27.644000 L 28.575000 27.628000 L 28.716000 27.610000 L 28.856000 27.591000 L 28.996000 27.570000 L 29.136000 27.548000 L 29.276000 27.523000 L 29.415000 27.497000 L 29.555000 27.469000 L 29.694000 27.439000 L 29.832000 27.407000 L 29.971000 27.372000 L 30.109000 27.336000 L 30.246000 27.297000 L 30.383000 27.256000 L 30.519000 27.212000 L 30.655000 27.166000 L 30.789000 27.118000 L 30.923000 27.067000 L 31.056000 27.013000 L 31.188000 26.957000 L 31.319000 26.898000 L 31.449000 26.837000 L 31.578000 26.773000 L 31.705000 26.706000 L 31.831000 26.637000 L 31.955000 26.566000 L 32.079000 26.492000 L 32.200000 26.416000 L 32.320000 26.337000 L 32.439000 26.256000 L 32.556000 26.173000 L 32.671000 26.088000 L 32.785000 26.000000 L 32.897000 25.910000 L 33.007000 25.818000 L 33.115000 25.724000 L 33.221000 25.627000 L 33.326000 25.529000 L 33.428000 25.428000 L 33.529000 25.326000 L 33.627000 25.221000 L 33.724000 25.115000 L 33.818000 25.007000 L 33.910000 24.897000 L 34.000000 24.785000 L 34.088000 24.671000 L 34.173000 24.556000 L 34.256000 24.439000 L 34.337000 24.320000 L 34.416000 24.200000 L 34.492000 24.079000 L 34.566000 23.955000 L 34.637000 23.831000 L 34.706000 23.705000 L 34.773000 23.578000 L 34.837000 23.449000 L 34.898000 23.319000 L 34.957000 23.188000 L 35.013000 23.056000 L 35.067000 22.923000 L 35.118000 22.789000 L 35.166000 22.655000 L 35.212000 22.519000 L 35.256000 22.383000 L 35.297000 22.246000 L 35.336000 22.109000 L 35.372000 21.971000 L 35.407000 21.832000 L 35.439000 21.694000 L 35.469000 21.555000 L 35.497000 21.415000 L 35.523000 21.276000 L 35.548000 21.136000 L 35.570000 20.996000 L 35.591000 20.856000 L 35.610000 20.716000 L 35.628000 20.575000 L 35.644000 20.435000 L 35.658000 20.295000 L 35.671000 20.154000 L 35.683000 20.014000 L 35.694000 19.873000 L 35.703000 19.733000 L 35.719000 19.453000 L 35.725000 19.312000 L 35.735000 19.032000 L 35.739000 18.892000 L 35.742000 18.753000 L 35.746000 18.473000 L 35.748000 18.334000 L 35.749000 18.195000 L 35.749000 18.056000 L 35.750000 17.916000 L 35.750000 15.085000 L 35.751000 14.946000 L 35.751000 14.808000 L 35.752000 14.670000 L 35.754000 14.533000 L 35.758000 14.257000 L 35.761000 14.120000 L 35.765000 13.983000 L 35.769000 13.845000 L 35.775000 13.708000 L 35.781000 13.572000 L 35.788000 13.435000 L 35.796000 13.298000 L 35.805000 13.162000 L 35.815000 13.026000 L 35.839000 12.754000 L 35.853000 12.619000 L 35.869000 12.484000 L 35.886000 12.349000 L 35.904000 12.215000 L 35.924000 12.080000 L 35.946000 11.947000 L 35.969000 11.813000 L 35.994000 11.680000 L 36.020000 11.548000 L 36.049000 11.416000 L 36.080000 11.284000 L 36.112000 11.154000 L 36.147000 11.023000 L 36.183000 10.894000 L 36.222000 10.765000 L 36.263000 10.637000 L 36.306000 10.510000 L 36.351000 10.384000 L 36.399000 10.259000 L 36.449000 10.135000 L 36.501000 10.012000 L 36.556000 9.890000 L 36.613000 9.769000 L 36.673000 9.649000 L 36.735000 9.531000 L 36.799000 9.413000 L 36.865000 9.297000 L 36.934000 9.183000 L 37.005000 9.069000 L 37.078000 8.957000 L 37.154000 8.847000 L 37.231000 8.738000 L 37.311000 8.631000 L 37.393000 8.525000 L 37.476000 8.421000 L 37.562000 8.318000 L 37.650000 8.217000 L 37.740000 8.118000 L 37.832000 8.021000 L 37.925000 7.925000 L 38.021000 7.832000 L 38.118000 7.740000 L 38.217000 7.650000 L 38.318000 7.562000 L 38.421000 7.476000 L 38.525000 7.393000 L 38.631000 7.311000 L 38.738000 7.231000 L 38.847000 7.154000 L 38.957000 7.078000 L 39.069000 7.005000 L 39.183000 6.934000 L 39.297000 6.865000 L 39.413000 6.799000 L 39.531000 6.735000 L 39.649000 6.673000 L 39.769000 6.613000 L 39.890000 6.556000 L 40.012000 6.501000 L 40.135000 6.449000 L 40.259000 6.399000 L 40.384000 6.351000 L 40.510000 6.306000 L 40.637000 6.263000 L 40.765000 6.222000 L 40.894000 6.183000 L 41.023000 6.147000 L 41.154000 6.112000 L 41.284000 6.080000 L 41.416000 6.049000 L 41.548000 6.020000 L 41.680000 5.994000 L 41.813000 5.969000 L 41.947000 5.946000 L 42.080000 5.924000 L 42.215000 5.904000 L 42.349000 5.886000 L 42.484000 5.869000 L 42.619000 5.853000 L 42.754000 5.839000 L 43.026000 5.815000 L 43.162000 5.805000 L 43.298000 5.796000 L 43.435000 5.788000 L 43.572000 5.781000 L 43.708000 5.775000 L 43.845000 5.769000 L 43.983000 5.765000 L 44.120000 5.761000 L 44.257000 5.758000 L 44.533000 5.754000 L 44.670000 5.752000 L 44.808000 5.751000 L 44.946000 5.751000 L 45.085000 5.750000 L 245.925000 5.750000 L 246.064000 5.751000 L 246.202000 5.751000 L 246.340000 5.752000 L 246.477000 5.754000 L 246.753000 5.758000 L 246.890000 5.761000 L 247.027000 5.765000 L 247.165000 5.769000 L 247.302000 5.775000 L 247.438000 5.781000 L 247.575000 5.788000 L 247.712000 5.796000 L 247.848000 5.805000 L 247.984000 5.815000 L 248.256000 5.839000 L 248.391000 5.853000 L 248.526000 5.869000 L 248.661000 5.886000 L 248.795000 5.904000 L 248.930000 5.924000 L 249.063000 5.946000 L 249.197000 5.969000 L 249.330000 5.994000 L 249.462000 6.020000 L 249.594000 6.049000 L 249.726000 6.080000 L 249.856000 6.112000 L 249.987000 6.147000 L 250.116000 6.183000 L 250.245000 6.222000 L 250.373000 6.263000 L 250.500000 6.306000 L 250.626000 6.351000 L 250.751000 6.399000 L 250.875000 6.449000 L 250.998000 6.501000 L 251.120000 6.556000 L 251.241000 6.613000 L 251.361000 6.673000 L 251.479000 6.735000 L 251.597000 6.799000 L 251.713000 6.865000 L 251.827000 6.934000 L 251.941000 7.005000 L 252.053000 7.078000 L 252.163000 7.154000 L 252.272000 7.231000 L 252.379000 7.311000 L 252.485000 7.393000 L 252.589000 7.476000 L 252.692000 7.562000 L 252.793000 7.650000 L 252.892000 7.740000 L 252.989000 7.832000 L 253.085000 7.925000 L 253.178000 8.021000 L 253.270000 8.118000 L 253.360000 8.217000 L 253.448000 8.318000 L 253.534000 8.421000 L 253.617000 8.525000 L 253.699000 8.631000 L 253.779000 8.738000 L 253.856000 8.847000 L 253.932000 8.957000 L 254.005000 9.069000 L 254.076000 9.183000 L 254.145000 9.297000 L 254.211000 9.413000 L 254.275000 9.531000 L 254.337000 9.649000 L 254.397000 9.769000 L 254.454000 9.890000 L 254.509000 10.012000 L 254.561000 10.135000 L 254.611000 10.259000 L 254.659000 10.384000 L 254.704000 10.510000 L 254.747000 10.637000 L 254.788000 10.765000 L 254.827000 10.894000 L 254.863000 11.023000 L 254.898000 11.154000 L 254.930000 11.284000 L 254.961000 11.416000 L 254.990000 11.548000 L 255.016000 11.680000 L 255.041000 11.813000 L 255.064000 11.947000 L 255.086000 12.080000 L 255.106000 12.215000 L 255.124000 12.349000 L 255.141000 12.484000 L 255.157000 12.619000 L 255.171000 12.754000 L 255.195000 13.026000 L 255.205000 13.162000 L 255.214000 13.298000 L 255.222000 13.435000 L 255.229000 13.572000 L 255.235000 13.708000 L 255.241000 13.845000 L 255.245000 13.983000 L 255.249000 14.120000 L 255.252000 14.257000 L 255.256000 14.533000 L 255.258000 14.670000 L 255.259000 14.808000 L 255.259000 14.946000 L 255.260000 15.085000 L 255.260000 17.916000 L 255.261000 18.056000 L 255.261000 18.195000 L 255.262000 18.334000 L 255.264000 18.473000 L 255.268000 18.753000 L 255.271000 18.892000 L 255.275000 19.032000 L 255.285000 19.312000 L 255.291000 19.453000 L 255.307000 19.733000 L 255.316000 19.873000 L 255.327000 20.014000 L 255.339000 20.154000 L 255.352000 20.295000 L 255.366000 20.435000 L 255.382000 20.575000 L 255.400000 20.716000 L 255.419000 20.856000 L 255.440000 20.996000 L 255.462000 21.136000 L 255.487000 21.276000 L 255.513000 21.415000 L 255.541000 21.555000 L 255.571000 21.694000 L 255.603000 21.832000 L 255.638000 21.971000 L 255.674000 22.109000 L 255.713000 22.246000 L 255.754000 22.383000 L 255.798000 22.519000 L 255.844000 22.655000 L 255.892000 22.789000 L 255.943000 22.923000 L 255.997000 23.056000 L 256.053000 23.188000 L 256.112000 23.319000 L 256.173000 23.449000 L 256.237000 23.578000 L 256.304000 23.705000 L 256.373000 23.831000 L 256.444000 23.955000 L 256.518000 24.079000 L 256.594000 24.200000 L 256.673000 24.320000 L 256.754000 24.439000 L 256.837000 24.556000 L 256.922000 24.671000 L 257.010000 24.785000 L 257.100000 24.897000 L 257.192000 25.007000 L 257.286000 25.115000 L 257.383000 25.221000 L 257.481000 25.326000 L 257.582000 25.428000 L 257.684000 25.529000 L 257.789000 25.627000 L 257.895000 25.724000 L 258.003000 25.818000 L 258.113000 25.910000 L 258.225000 26.000000 L 258.339000 26.088000 L 258.454000 26.173000 L 258.571000 26.256000 L 258.690000 26.337000 L 258.810000 26.416000 L 258.931000 26.492000 L 259.055000 26.566000 L 259.179000 26.637000 L 259.305000 26.706000 L 259.432000 26.773000 L 259.561000 26.837000 L 259.691000 26.898000 L 259.822000 26.957000 L 259.954000 27.013000 L 260.087000 27.067000 L 260.221000 27.118000 L 260.355000 27.166000 L 260.491000 27.212000 L 260.627000 27.256000 L 260.764000 27.297000 L 260.901000 27.336000 L 261.039000 27.372000 L 261.178000 27.407000 L 261.316000 27.439000 L 261.455000 27.469000 L 261.595000 27.497000 L 261.734000 27.523000 L 261.874000 27.548000 L 262.014000 27.570000 L 262.154000 27.591000 L 262.294000 27.610000 L 262.435000 27.628000 L 262.575000 27.644000 L 262.715000 27.658000 L 262.856000 27.671000 L 262.996000 27.683000 L 263.137000 27.694000 L 263.277000 27.703000 L 263.557000 27.719000 L 263.698000 27.725000 L 263.978000 27.735000 L 264.118000 27.739000 L 264.257000 27.742000 L 264.537000 27.746000 L 264.676000 27.748000 L 264.815000 27.749000 L 264.954000 27.749000 L 265.094000 27.750000 L 265.520000 27.750000 L 275.520000 28.000000 L 275.520000 28.250000 L 265.520000 28.500000 L 265.094000 28.500000 L 264.954000 28.501000 L 264.815000 28.501000 L 264.676000 28.502000 L 264.537000 28.504000 L 264.257000 28.508000 L 264.118000 28.511000 L 263.978000 28.515000 L 263.698000 28.525000 L 263.557000 28.531000 L 263.277000 28.547000 L 263.137000 28.556000 L 262.996000 28.567000 L 262.856000 28.579000 L 262.715000 28.592000 L 262.575000 28.606000 L 262.435000 28.622000 L 262.294000 28.640000 L 262.154000 28.659000 L 262.014000 28.680000 L 261.874000 28.702000 L 261.734000 28.727000 L 261.595000 28.753000 L 261.455000 28.781000 L 261.316000 28.811000 L 261.178000 28.843000 L 261.039000 28.878000 L 260.901000 28.914000 L 260.764000 28.953000 L 260.627000 28.994000 L 260.491000 29.038000 L 260.355000 29.084000 L 260.221000 29.132000 L 260.087000 29.183000 L 259.954000 29.237000 L 259.822000 29.293000 L 259.691000 29.352000 L 259.561000 29.413000 L 259.432000 29.477000 L 259.305000 29.544000 L 259.179000 29.613000 L 259.055000 29.684000 L 258.931000 29.758000 L 258.810000 29.834000 L 258.690000 29.913000 L 258.571000 29.994000 L 258.454000 30.077000 L 258.339000 30.162000 L 258.225000 30.250000 L 258.113000 30.340000 L 258.003000 30.432000 L 257.895000 30.526000 L 257.789000 30.623000 L 257.684000 30.721000 L 257.582000 30.822000 L 257.481000 30.924000 L 257.383000 31.029000 L 257.286000 31.135000 L 257.192000 31.243000 L 257.100000 31.353000 L 257.010000 31.465000 L 256.922000 31.579000 L 256.837000 31.694000 L 256.754000 31.811000 L 256.673000 31.930000 L 256.594000 32.050000 L 256.518000 32.171000 L 256.444000 32.295000 L 256.373000 32.419000 L 256.304000 32.545000 L 256.237000 32.672000 L 256.173000 32.801000 L 256.112000 32.931000 L 256.053000 33.062000 L 255.997000 33.194000 L 255.943000 33.327000 L 255.892000 33.461000 L 255.844000 33.595000 L 255.798000 33.731000 L 255.754000 33.867000 L 255.713000 34.004000 L 255.674000 34.141000 L 255.638000 34.279000 L 255.603000 34.418000 L 255.571000 34.556000 L 255.541000 34.695000 L 255.513000 34.835000 L 255.487000 34.974000 L 255.462000 35.114000 L 255.440000 35.254000 L 255.419000 35.394000 L 255.400000 35.534000 L 255.382000 35.675000 L 255.366000 35.815000 L 255.352000 35.955000 L 255.339000 36.096000 L 255.327000 36.236000 L 255.316000 36.377000 L 255.307000 36.517000 L 255.291000 36.797000 L 255.285000 36.938000 L 255.275000 37.218000 L 255.271000 37.358000 L 255.268000 37.497000 L 255.264000 37.777000 L 255.262000 37.916000 L 255.261000 38.055000 L 255.261000 38.194000 L 255.260000 38.334000 L 255.260000 46.165000 L 255.259000 46.304000 L 255.259000 46.442000 L 255.258000 46.580000 L 255.256000 46.717000 L 255.252000 46.993000 L 255.249000 47.130000 L 255.245000 47.267000 L 255.241000 47.405000 L 255.235000 47.542000 L 255.229000 47.678000 L 255.222000 47.815000 L 255.214000 47.952000 L 255.205000 48.088000 L 255.195000 48.224000 L 255.171000 48.496000 L 255.157000 48.631000 L 255.141000 48.766000 L 255.124000 48.901000 L 255.106000 49.035000 L 255.086000 49.170000 L 255.064000 49.303000 L 255.041000 49.437000 L 255.016000 49.570000 L 254.990000 49.702000 L 254.961000 49.834000 L 254.930000 49.966000 L 254.898000 50.096000 L 254.863000 50.227000 L 254.827000 50.356000 L 254.788000 50.485000 L 254.747000 50.613000 L 254.704000 50.740000 L 254.659000 50.866000 L 254.611000 50.991000 L 254.561000 51.115000 L 254.509000 51.238000 L 254.454000 51.360000 L 254.397000 51.481000 L 254.337000 51.601000 L 254.275000 51.719000 L 254.211000 51.837000 L 254.145000 51.953000 L 254.076000 52.067000 L 254.005000 52.181000 L 253.932000 52.293000 L 253.856000 52.403000 L 253.779000 52.512000 L 253.699000 52.619000 L 253.617000 52.725000 L 253.534000 52.829000 L 253.448000 52.932000 L 253.360000 53.033000 L 253.270000 53.132000 L 253.178000 53.229000 L 253.085000 53.325000 L 252.989000 53.418000 L 252.892000 53.510000 L 252.793000 53.600000 L 252.692000 53.688000 L 252.589000 53.774000 L 252.485000 53.857000 L 252.379000 53.939000 L 252.272000 54.019000 L 252.163000 54.096000 L 252.053000 54.172000 L 251.941000 54.245000 L 251.827000 54.316000 L 251.713000 54.385000 L 251.597000 54.451000 L 251.479000 54.515000 L 251.361000 54.577000 L 251.241000 54.637000 L 251.120000 54.694000 L 250.998000 54.749000 L 250.875000 54.801000 L 250.751000 54.851000 L 250.626000 54.899000 L 250.500000 54.944000 L 250.373000 54.987000 L 250.245000 55.028000 L 250.116000 55.067000 L 249.987000 55.103000 L 249.856000 55.138000 L 249.726000 55.170000 L 249.594000 55.201000 L 249.462000 55.230000 L 249.330000 55.256000 L 249.197000 55.281000 L 249.063000 55.304000 L 248.930000 55.326000 L 248.795000 55.346000 L 248.661000 55.364000 L 248.526000 55.381000 L 248.391000 55.397000 L 248.256000 55.411000 L 247.984000 55.435000 L 247.848000 55.445000 L 247.712000 55.454000 L 247.575000 55.462000 L 247.438000 55.469000 L 247.302000 55.475000 L 247.165000 55.481000 L 247.027000 55.485000 L 246.890000 55.489000 L 246.753000 55.492000 L 246.477000 55.496000 L 246.340000 55.498000 L 246.202000 55.499000 L 246.064000 55.499000 L 245.925000 55.500000 L 45.085000 55.500000 L 44.946000 55.499000 L 44.808000 55.499000 L 44.670000 55.498000 L 44.533000 55.496000 L 44.257000 55.492000 L 44.120000 55.489000 L 43.983000 55.485000 L 43.845000 55.481000 L 43.708000 55.475000 L 43.572000 55.469000 L 43.435000 55.462000 L 43.298000 55.454000 L 43.162000 55.445000 L 43.026000 55.435000 L 42.754000 55.411000 L 42.619000 55.397000 L 42.484000 55.381000 L 42.349000 55.364000 L 42.215000 55.346000 L 42.080000 55.326000 L 41.947000 55.304000 L 41.813000 55.281000 L 41.680000 55.256000 L 41.548000 55.230000 L 41.416000 55.201000 L 41.284000 55.170000 L 41.154000 55.138000 L 41.023000 55.103000 L 40.894000 55.067000 L 40.765000 55.028000 L 40.637000 54.987000 L 40.510000 54.944000 L 40.384000 54.899000 L 40.259000 54.851000 L 40.135000 54.801000 L 40.012000 54.749000 L 39.890000 54.694000 L 39.769000 54.637000 L 39.649000 54.577000 L 39.531000 54.515000 L 39.413000 54.451000 L 39.297000 54.385000 L 39.183000 54.316000 L 39.069000 54.245000 L 38.957000 54.172000 L 38.847000 54.096000 L 38.738000 54.019000 L 38.631000 53.939000 L 38.525000 53.857000 L 38.421000 53.774000 L 38.318000 53.688000 L 38.217000 53.600000 L 38.118000 53.510000 L 38.021000 53.418000 L 37.925000 53.325000 L 37.832000 53.229000 L 37.740000 53.132000 L 37.650000 53.033000 L 37.562000 52.932000 L 37.476000 52.829000 L 37.393000 52.725000 L 37.311000 52.619000 L 37.231000 52.512000 L 37.154000 52.403000 L 37.078000 52.293000 L 37.005000 52.181000 L 36.934000 52.067000 L 36.865000 51.953000 L 36.799000 51.837000 L 36.735000 51.719000 L 36.673000 51.601000 L 36.613000 51.481000 L 36.556000 51.360000 L 36.501000 51.238000 L 36.449000 51.115000 L 36.399000 50.991000 L 36.351000 50.866000 L 36.306000 50.740000 L 36.263000 50.613000 L 36.222000 50.485000 L 36.183000 50.356000 L 36.147000 50.227000 L 36.112000 50.096000 L 36.080000 49.966000 L 36.049000 49.834000 L 36.020000 49.702000 L 35.994000 49.570000 L 35.969000 49.437000 L 35.946000 49.303000 L 35.924000 49.170000 L 35.904000 49.035000 L 35.886000 48.901000 L 35.869000 48.766000 L 35.853000 48.631000 L 35.839000 48.496000 L 35.815000 48.224000 L 35.805000 48.088000 L 35.796000 47.952000 L 35.788000 47.815000 L 35.781000 47.678000 L 35.775000 47.542000 L 35.769000 47.405000 L 35.765000 47.267000 L 35.761000 47.130000 L 35.758000 46.993000 L 35.754000 46.717000 L 35.752000 46.580000 L 35.751000 46.442000 L 35.751000 46.304000 L 35.750000 46.165000 L 35.750000 38.334000 L 35.749000 38.194000 L 35.749000 38.055000 L 35.748000 37.916000 L 35.746000 37.777000 L 35.742000 37.497000 L 35.739000 37.358000 L 35.735000 37.218000 L 35.725000 36.938000 L 35.719000 36.797000 L 35.703000 36.517000 L 35.694000 36.377000 L 35.683000 36.236000 L 35.671000 36.096000 L 35.658000 35.955000 L 35.644000 35.815000 L 35.628000 35.675000 L 35.610000 35.534000 L 35.591000 35.394000 L 35.570000 35.254000 L 35.548000 35.114000 L 35.523000 34.974000 L 35.497000 34.835000 L 35.469000 34.695000 L 35.439000 34.556000 L 35.407000 34.418000 L 35.372000 34.279000 L 35.336000 34.141000 L 35.297000 34.004000 L 35.256000 33.867000 L 35.212000 33.731000 L 35.166000 33.595000 L 35.118000 33.461000 L 35.067000 33.327000 L 35.013000 33.194000 L 34.957000 33.062000 L 34.898000 32.931000 L 34.837000 32.801000 L 34.773000 32.672000 L 34.706000 32.545000 L 34.637000 32.419000 L 34.566000 32.295000 L 34.492000 32.171000 L 34.416000 32.050000 L 34.337000 31.930000 L 34.256000 31.811000 L 34.173000 31.694000 L 34.088000 31.579000 L 34.000000 31.465000 L 33.910000 31.353000 L 33.818000 31.243000 L 33.724000 31.135000 L 33.627000 31.029000 L 33.529000 30.924000 L 33.428000 30.822000 L 33.326000 30.721000 L 33.221000 30.623000 L 33.115000 30.526000 L 33.007000 30.432000 L 32.897000 30.340000 L 32.785000 30.250000 L 32.671000 30.162000 L 32.556000 30.077000 L 32.439000 29.994000 L 32.320000 29.913000 L 32.200000 29.834000 L 32.079000 29.758000 L 31.955000 29.684000 L 31.831000 29.613000 L 31.705000 29.544000 L 31.578000 29.477000 L 31.449000 29.413000 L 31.319000 29.352000 L 31.188000 29.293000 L 31.056000 29.237000 L 30.923000 29.183000 L 30.789000 29.132000 L 30.655000 29.084000 L 30.519000 29.038000 L 30.383000 28.994000 L 30.246000 28.953000 L 30.109000 28.914000 L 29.971000 28.878000 L 29.832000 28.843000 L 29.694000 28.811000 L 29.555000 28.781000 L 29.415000 28.753000 L 29.276000 28.727000 L 29.136000 28.702000 L 28.996000 28.680000 L 28.856000 28.659000 L 28.716000 28.640000 L 28.575000 28.622000 L 28.435000 28.606000 L 28.295000 28.592000 L 28.154000 28.579000 L 28.014000 28.567000 L 27.873000 28.556000 L 27.733000 28.547000 L 27.453000 28.531000 L 27.312000 28.525000 L 27.032000 28.515000 L 26.892000 28.511000 L 26.753000 28.508000 L 26.473000 28.504000 L 26.334000 28.502000 L 26.195000 28.501000 L 26.056000 28.501000 L 25.916000 28.500000 L 25.500000 28.500000 L 15.500000 28.250000 L 10.000000 28.250000 L 0.000000 28.500000 L 0.000000 29.000000 L 10.000000 29.250000 L 10.000000 29.375000 L 15.500000 29.375000 L 15.500000 29.250000 L 25.500000 29.000000 L 25.915000 29.000000 L 26.054000 29.001000 L 26.192000 29.001000 L 26.330000 29.002000 L 26.467000 29.004000 L 26.743000 29.008000 L 26.880000 29.011000 L 27.017000 29.015000 L 27.155000 29.019000 L 27.292000 29.025000 L 27.428000 29.031000 L 27.565000 29.038000 L 27.702000 29.046000 L 27.838000 29.055000 L 27.974000 29.065000 L 28.246000 29.089000 L 28.381000 29.103000 L 28.516000 29.119000 L 28.651000 29.136000 L 28.785000 29.154000 L 28.920000 29.174000 L 29.053000 29.196000 L 29.187000 29.219000 L 29.320000 29.244000 L 29.452000 29.270000 L 29.584000 29.299000 L 29.716000 29.330000 L 29.846000 29.362000 L 29.977000 29.397000 L 30.106000 29.433000 L 30.235000 29.472000 L 30.363000 29.513000 L 30.490000 29.556000 L 30.616000 29.601000 L 30.741000 29.649000 L 30.865000 29.699000 L 30.988000 29.751000 L 31.110000 29.806000 L 31.231000 29.863000 L 31.351000 29.923000 L 31.469000 29.985000 L 31.587000 30.049000 L 31.703000 30.115000 L 31.817000 30.184000 L 31.931000 30.255000 L 32.043000 30.328000 L 32.153000 30.404000 L 32.262000 30.481000 L 32.369000 30.561000 L 32.475000 30.643000 L 32.579000 30.726000 L 32.682000 30.812000 L 32.783000 30.900000 L 32.882000 30.990000 L 32.979000 31.082000 L 33.075000 31.175000 L 33.168000 31.271000 L 33.260000 31.368000 L 33.350000 31.467000 L 33.438000 31.568000 L 33.524000 31.671000 L 33.607000 31.775000 L 33.689000 31.881000 L 33.769000 31.988000 L 33.846000 32.097000 L 33.922000 32.207000 L 33.995000 32.319000 L 34.066000 32.433000 L 34.135000 32.547000 L 34.201000 32.663000 L 34.265000 32.781000 L 34.327000 32.899000 L 34.387000 33.019000 L 34.444000 33.140000 L 34.499000 33.262000 L 34.551000 33.385000 L 34.601000 33.509000 L 34.649000 33.634000 L 34.694000 33.760000 L 34.737000 33.887000 L 34.778000 34.015000 L 34.817000 34.144000 L 34.853000 34.273000 L 34.888000 34.404000 L 34.920000 34.534000 L 34.951000 34.666000 L 34.980000 34.798000 L 35.006000 34.930000 L 35.031000 35.063000 L 35.054000 35.197000 L 35.076000 35.330000 L 35.096000 35.465000 L 35.114000 35.599000 L 35.131000 35.734000 L 35.147000 35.869000 L 35.161000 36.004000 L 35.185000 36.276000 L 35.195000 36.412000 L 35.204000 36.548000 L 35.212000 36.685000 L 35.219000 36.822000 L 35.225000 36.958000 L 35.231000 37.095000 L 35.235000 37.233000 L 35.239000 37.370000 L 35.242000 37.507000 L 35.246000 37.783000 L 35.248000 37.920000 L 35.249000 38.058000 L 35.249000 38.196000 L 35.250000 38.335000 L 35.250000 46.166000 L 35.251000 46.306000 L 35.251000 46.445000 L 35.252000 46.584000 L 35.254000 46.723000 L 35.258000 47.003000 L 35.261000 47.142000 L 35.265000 47.282000 L 35.275000 47.562000 L 35.281000 47.703000 L 35.297000 47.983000 L 35.306000 48.123000 L 35.317000 48.264000 L 35.329000 48.404000 L 35.342000 48.545000 L 35.356000 48.685000 L 35.372000 48.825000 L 35.390000 48.966000 L 35.409000 49.106000 L 35.430000 49.246000 L 35.452000 49.386000 L 35.477000 49.526000 L 35.503000 49.665000 L 35.531000 49.805000 L 35.561000 49.944000 L 35.593000 50.082000 L 35.628000 50.221000 L 35.664000 50.359000 L 35.703000 50.496000 L 35.744000 50.633000 L 35.788000 50.769000 L 35.834000 50.905000 L 35.882000 51.039000 L 35.933000 51.173000 L 35.987000 51.306000 L 36.043000 51.438000 L 36.102000 51.569000 L 36.163000 51.699000 L 36.227000 51.828000 L 36.294000 51.955000 L 36.363000 52.081000 L 36.434000 52.205000 L 36.508000 52.329000 L 36.584000 52.450000 L 36.663000 52.570000 L 36.744000 52.689000 L 36.827000 52.806000 L 36.912000 52.921000 L 37.000000 53.035000 L 37.090000 53.147000 L 37.182000 53.257000 L 37.276000 53.365000 L 37.373000 53.471000 L 37.471000 53.576000 L 37.572000 53.678000 L 37.674000 53.779000 L 37.779000 53.877000 L 37.885000 53.974000 L 37.993000 54.068000 L 38.103000 54.160000 L 38.215000 54.250000 L 38.329000 54.338000 L 38.444000 54.423000 L 38.561000 54.506000 L 38.680000 54.587000 L 38.800000 54.666000 L 38.921000 54.742000 L 39.045000 54.816000 L 39.169000 54.887000 L 39.295000 54.956000 L 39.422000 55.023000 L 39.551000 55.087000 L 39.681000 55.148000 L 39.812000 55.207000 L 39.944000 55.263000 L 40.077000 55.317000 L 40.211000 55.368000 L 40.345000 55.416000 L 40.481000 55.462000 L 40.617000 55.506000 L 40.754000 55.547000 L 40.891000 55.586000 L 41.029000 55.622000 L 41.168000 55.657000 L 41.306000 55.689000 L 41.445000 55.719000 L 41.585000 55.747000 L 41.724000 55.773000 L 41.864000 55.798000 L 42.004000 55.820000 L 42.144000 55.841000 L 42.284000 55.860000 L 42.425000 55.878000 L 42.565000 55.894000 L 42.705000 55.908000 L 42.846000 55.921000 L 42.986000 55.933000 L 43.127000 55.944000 L 43.267000 55.953000 L 43.547000 55.969000 L 43.688000 55.975000 L 43.968000 55.985000 L 44.108000 55.989000 L 44.247000 55.992000 L 44.527000 55.996000 L 44.666000 55.998000 L 44.805000 55.999000 L 44.944000 55.999000 L 45.084000 56.000000 L 245.926000 56.000000 L 246.066000 55.999000 L 246.205000 55.999000 L 246.344000 55.998000 L 246.483000 55.996000 L 246.763000 55.992000 L 246.902000 55.989000 L 247.042000 55.985000 L 247.322000 55.975000 L 247.463000 55.969000 L 247.743000 55.953000 L 247.883000 55.944000 L 248.024000 55.933000 L 248.164000 55.921000 L 248.305000 55.908000 L 248.445000 55.894000 L 248.585000 55.878000 L 248.726000 55.860000 L 248.866000 55.841000 L 249.006000 55.820000 L 249.146000 55.798000 L 249.286000 55.773000 L 249.425000 55.747000 L 249.565000 55.719000 L 249.704000 55.689000 L 249.842000 55.657000 L 249.981000 55.622000 L 250.119000 55.586000 L 250.256000 55.547000 L 250.393000 55.506000 L 250.529000 55.462000 L 250.665000 55.416000 L 250.799000 55.368000 L 250.933000 55.317000 L 251.066000 55.263000 L 251.198000 55.207000 L 251.329000 55.148000 L 251.459000 55.087000 L 251.588000 55.023000 L 251.715000 54.956000 L 251.841000 54.887000 L 251.965000 54.816000 L 252.089000 54.742000 L 252.210000 54.666000 L 252.330000 54.587000 L 252.449000 54.506000 L 252.566000 54.423000 L 252.681000 54.338000 L 252.795000 54.250000 L 252.907000 54.160000 L 253.017000 54.068000 L 253.125000 53.974000 L 253.231000 53.877000 L 253.336000 53.779000 L 253.438000 53.678000 L 253.539000 53.576000 L 253.637000 53.471000 L 253.734000 53.365000 L 253.828000 53.257000 L 253.920000 53.147000 L 254.010000 53.035000 L 254.098000 52.921000 L 254.183000 52.806000 L 254.266000 52.689000 L 254.347000 52.570000 L 254.426000 52.450000 L 254.502000 52.329000 L 254.576000 52.205000 L 254.647000 52.081000 L 254.716000 51.955000 L 254.783000 51.828000 L 254.847000 51.699000 L 254.908000 51.569000 L 254.967000 51.438000 L 255.023000 51.306000 L 255.077000 51.173000 L 255.128000 51.039000 L 255.176000 50.905000 L 255.222000 50.769000 L 255.266000 50.633000 L 255.307000 50.496000 L 255.346000 50.359000 L 255.382000 50.221000 L 255.417000 50.082000 L 255.449000 49.944000 L 255.479000 49.805000 L 255.507000 49.665000 L 255.533000 49.526000 L 255.558000 49.386000 L 255.580000 49.246000 L 255.601000 49.106000 L 255.620000 48.966000 L 255.638000 48.825000 L 255.654000 48.685000 L 255.668000 48.545000 L 255.681000 48.404000 L 255.693000 48.264000 L 255.704000 48.123000 L 255.713000 47.983000 L 255.729000 47.703000 L 255.735000 47.562000 L 255.745000 47.282000 L 255.749000 47.142000 L 255.752000 47.003000 L 255.756000 46.723000 L 255.758000 46.584000 L 255.759000 46.445000 L 255.759000 46.306000 L 255.760000 46.166000 L 255.760000 38.335000 Z"/>
  </g>
  <g id="layer047_datatype000">
    <path style="fill:#ff8000"
          d="M 45.600000 4.250000 L 40.600000 0.000000 L 29.600000 0.000000 L 29.600000 11.000000 L 40.600000 11.000000 L 45.600000 6.750000 L 245.400000 6.750000 L 250.400000 11.000000 L 261.400000 11.000000 L 261.400000 0.000000 L 250.400000 0.000000 L 245.400000 4.250000 Z"/>
  </g>
  <g id="layer044_datatype000">
    <path style="fill:#808080"
          d="M 259.250000 2.150000 L 258.550000 2.150000 L 258.550000 2.850000 L 259.250000 2.850000 Z"/>
    <path style="fill:#808080"
          d="M 32.450000 2.150000 L 31.750000 2.150000 L 31.750000 2.850000 L 32.450000 2.850000 Z"/>
    <path style="fill:#808080"
          d="M 257.250000 2.150000 L 256.550000 2.150000 L 256.550000 2.850000 L 257.250000 2.850000 Z"/>
    <path style="fill:#808080"
          d="M 34.450000 2.150000 L 33.750000 2.150000 L 33.750000 2.850000 L 34.450000 2.850000 Z"/>
    <path style="fill:#808080"
          d="M 255.250000 2.150000 L 254.550000 2.150000 L 254.550000 2.850000 L 255.250000 2.850000 Z"/>
    <path style="fill:#808080"
          d="M 36.450000 2.150000 L 35.750000 2.150000 L 35.750000 2.850000 L 36.450000 2.850000 Z"/>
    <path style="fill:#808080"
          d="M 38.450000 2.150000 L 37.750000 2.150000 L 37.750000 2.850000 L 38.450000 2.850000 Z"/>
    <path style="fill:#808080"
          d="M 253.250000 2.150000 L 252.550000 2.150000 L 252.550000 2.850000 L 253.250000 2.850000 Z"/>
    <path style="fill:#808080"
          d="M 259.250000 4.150000 L 258.550000 4.150000 L 258.550000 4.850000 L 259.250000 4.850000 Z"/>
    <path style="fill:#808080"
          d="M 32.450000 4.150000 L 31.750000 4.150000 L 31.750000 4.850000 L 32.450000 4.850000 Z"/>
    <path style="fill:#808080"
          d="M 34.450000 4.150000 L 33.750000 4.150000 L 33.750000 4.850000 L 34.450000 4.850000 Z"/>
    <path style="fill:#808080"
          d="M 36.450000 4.150000 L 35.750000 4.150000 L 35.750000 4.850000 L 36.450000 4.850000 Z"/>
    <path style="fill:#808080"
          d="M 38.450000 4.150000 L 37.750000 4.150000 L 37.750000 4.850000 L 38.450000 4.850000 Z"/>
    <path style="fill:#808080"
          d="M 253.250000 4.150000 L 252.550000 4.150000 L 252.550000 4.850000 L 253.250000 4.850000 Z"/>
    <path style="fill:#808080"
          d="M 257.250000 4.150000 L 256.550000 4.150000 L 256.550000 4.850000 L 257.250000 4.850000 Z"/>
    <path style="fill:#808080"
          d="M 255.250000 4.150000 L 254.550000 4.150000 L 254.550000 4.850000 L 255.250000 4.850000 Z"/>
    <path style="fill:#808080"
          d="M 253.250000 6.150000 L 252.550000 6.150000 L 252.550000 6.850000 L 253.250000 6.850000 Z"/>
    <path style="fill:#808080"
          d="M 32.450000 6.150000 L 31.750000 6.150000 L 31.750000 6.850000 L 32.450000 6.850000 Z"/>
    <path style="fill:#808080"
          d="M 259.250000 6.150000 L 258.550000 6.150000 L 258.550000 6.850000 L 259.250000 6.850000 Z"/>
    <path style="fill:#808080"
          d="M 34.450000 6.150000 L 33.750000 6.150000 L 33.750000 6.850000 L 34.450000 6.850000 Z"/>
    <path style="fill:#808080"
          d="M 257.250000 6.150000 L 256.550000 6.150000 L 256.550000 6.850000 L 257.250000 6.850000 Z"/>
    <path style="fill:#808080"
          d="M 36.450000 6.150000 L 35.750000 6.150000 L 35.750000 6.850000 L 36.450000 6.850000 Z"/>
    <path style="fill:#808080"
          d="M 38.450000 6.150000 L 37.750000 6.150000 L 37.750000 6.850000 L 38.450000 6.850000 Z"/>
    <path style="fill:#808080"
          d="M 255.250000 6.150000 L 254.550000 6.150000 L 254.550000 6.850000 L 255.250000 6.850000 Z"/>
    <path style="fill:#808080"
          d="M 257.250000 8.150000 L 256.550000 8.150000 L 256.550000 8.850000 L 257.250000 8.850000 Z"/>
    <path style="fill:#808080"
          d="M 36.450000 8.150000 L 35.750000 8.150000 L 35.750000 8.850000 L 36.450000 8.850000 Z"/>
    <path style="fill:#808080"
          d="M 38.450000 8.150000 L 37.750000 8.150000 L 37.750000 8.850000 L 38.450000 8.850000 Z"/>
    <path style="fill:#808080"
          d="M 34.450000 8.150000 L 33.750000 8.150000 L 33.750000 8.850000 L 34.450000 8.850000 Z"/>
    <path style="fill:#808080"
          d="M 259.250000 8.150000 L 258.550000 8.150000 L 258.550000 8.850000 L 259.250000 8.850000 Z"/>
    <path style="fill:#808080"
          d="M 255.250000 8.150000 L 254.550000 8.150000 L 254.550000 8.850000 L 255.250000 8.850000 Z"/>
    <path style="fill:#808080"
          d="M 253.250000 8.150000 L 252.550000 8.150000 L 252.550000 8.850000 L 253.250000 8.850000 Z"/>
    <path style="fill:#808080"
          d="M 32.450000 8.150000 L 31.750000 8.150000 L 31.750000 8.850000 L 32.450000 8.850000 Z"/>
  </g>
  <g id="layer045_datatype000">
    <path style="fill:#008050"
          d="M 261.400000 0.000000 L 250.400000 0.000000 L 250.400000 11.000000 L 261.400000 11.000000 Z"/>
    <path style="fill:#008050"
          d="M 40.600000 0.000000 L 29.600000 0.000000 L 29.600000 11.000000 L 40.600000 11.000000 Z"/>
  </g>
  <g id="layer043_datatype000">
    <path style="fill:#805000"
          d="M 35.450000 1.150000 L 34.750000 1.150000 L 34.750000 1.850000 L 35.450000 1.850000 Z"/>
    <path style="fill:#805000"
          d="M 252.250000 1.150000 L 251.550000 1.150000 L 251.550000 1.850000 L 252.250000 1.850000 Z"/>
    <path style="fill:#805000"
          d="M 254.250000 1.150000 L 253.550000 1.150000 L 253.550000 1.850000 L 254.250000 1.850000 Z"/>
    <path style="fill:#805000"
          d="M 39.450000 1.150000 L 38.750000 1.150000 L 38.750000 1.850000 L 39.450000 1.850000 Z"/>
    <path style="fill:#805000"
          d="M 37.450000 1.150000 L 36.750000 1.150000 L 36.750000 1.850000 L 37.450000 1.850000 Z"/>
    <path style="fill:#805000"
          d="M 256.250000 1.150000 L 255.550000 1.150000 L 255.550000 1.850000 L 256.250000 1.850000 Z"/>
    <path style="fill:#805000"
          d="M 33.450000 1.150000 L 32.750000 1.150000 L 32.750000 1.850000 L 33.450000 1.850000 Z"/>
    <path style="fill:#805000"
          d="M 258.250000 1.150000 L 257.550000 1.150000 L 257.550000 1.850000 L 258.250000 1.850000 Z"/>
    <path style="fill:#805000"
          d="M 31.450000 1.150000 L 30.750000 1.150000 L 30.750000 1.850000 L 31.450000 1.850000 Z"/>
    <path style="fill:#805000"
          d="M 260.250000 1.150000 L 259.550000 1.150000 L 259.550000 1.850000 L 260.250000 1.850000 Z"/>
    <path style="fill:#805000"
          d="M 35.450000 3.150000 L 34.750000 3.150000 L 34.750000 3.850000 L 35.450000 3.850000 Z"/>
    <path style="fill:#805000"
          d="M 260.250000 3.150000 L 259.550000 3.150000 L 259.550000 3.850000 L 260.250000 3.850000 Z"/>
    <path style="fill:#805000"
          d="M 37.450000 3.150000 L 36.750000 3.150000 L 36.750000 3.850000 L 37.450000 3.850000 Z"/>
    <path style="fill:#805000"
          d="M 33.450000 3.150000 L 32.750000 3.150000 L 32.750000 3.850000 L 33.450000 3.850000 Z"/>
    <path style="fill:#805000"
          d="M 39.450000 3.150000 L 38.750000 3.150000 L 38.750000 3.850000 L 39.450000 3.850000 Z"/>
    <path style="fill:#805000"
          d="M 252.250000 3.150000 L 251.550000 3.150000 L 251.550000 3.850000 L 252.250000 3.850000 Z"/>
    <path style="fill:#805000"
          d="M 31.450000 3.150000 L 30.750000 3.150000 L 30.750000 3.850000 L 31.450000 3.850000 Z"/>
    <path style="fill:#805000"
          d="M 254.250000 3.150000 L 253.550000 3.150000 L 253.550000 3.850000 L 254.250000 3.850000 Z"/>
    <path style="fill:#805000"
          d="M 256.250000 3.150000 L 255.550000 3.150000 L 255.550000 3.850000 L 256.250000 3.850000 Z"/>
    <path style="fill:#805000"
          d="M 258.250000 3.150000 L 257.550000 3.150000 L 257.550000 3.850000 L 258.250000 3.850000 Z"/>
    <path style="fill:#805000"
          d="M 256.250000 5.150000 L 255.550000 5.150000 L 255.550000 5.850000 L 256.250000 5.850000 Z"/>
    <path style="fill:#805000"
          d="M 258.250000 5.150000 L 257.550000 5.150000 L 257.550000 5.850000 L 258.250000 5.850000 Z"/>
    <path style="fill:#805000"
          d="M 35.450000 5.150000 L 34.750000 5.150000 L 34.750000 5.850000 L 35.450000 5.850000 Z"/>
    <path style="fill:#805000"
          d="M 37.450000 5.150000 L 36.750000 5.150000 L 36.750000 5.850000 L 37.450000 5.850000 Z"/>
    <path style="fill:#805000"
          d="M 33.450000 5.150000 L 32.750000 5.150000 L 32.750000 5.850000 L 33.450000 5.850000 Z"/>
    <path style="fill:#805000"
          d="M 39.450000 5.150000 L 38.750000 5.150000 L 38.750000 5.850000 L 39.450000 5.850000 Z"/>
    <path style="fill:#805000"
          d="M 260.250000 5.150000 L 259.550000 5.150000 L 259.550000 5.850000 L 260.250000 5.850000 Z"/>
    <path style="fill:#805000"
          d="M 252.250000 5.150000 L 251.550000 5.150000 L 251.550000 5.850000 L 252.250000 5.850000 Z"/>
    <path style="fill:#805000"
          d="M 31.450000 5.150000 L 30.750000 5.150000 L 30.750000 5.850000 L 31.450000 5.850000 Z"/>
    <path style="fill:#805000"
          d="M 254.250000 5.150000 L 253.550000 5.150000 L 253.550000 5.850000 L 254.250000 5.850000 Z"/>
    <path style="fill:#805000"
          d="M 254.250000 7.150000 L 253.550000 7.150000 L 253.550000 7.850000 L 254.250000 7.850000 Z"/>
    <path style="fill:#805000"
          d="M 33.450000 7.150000 L 32.750000 7.150000 L 32.750000 7.850000 L 33.450000 7.850000 Z"/>
    <path style="fill:#805000"
          d="M 260.250000 7.150000 L 259.550000 7.150000 L 259.550000 7.850000 L 260.250000 7.850000 Z"/>
    <path style="fill:#805000"
          d="M 35.450000 7.150000 L 34.750000 7.150000 L 34.750000 7.850000 L 35.450000 7.850000 Z"/>
    <path style="fill:#805000"
          d="M 31.450000 7.150000 L 30.750000 7.150000 L 30.750000 7.850000 L 31.450000 7.850000 Z"/>
    <path style="fill:#805000"
          d="M 258.250000 7.150000 L 257.550000 7.150000 L 257.550000 7.850000 L 258.250000 7.850000 Z"/>
    <path style="fill:#805000"
          d="M 37.450000 7.150000 L 36.750000 7.150000 L 36.750000 7.850000 L 37.450000 7.850000 Z"/>
    <path style="fill:#805000"
          d="M 39.450000 7.150000 L 38.750000 7.150000 L 38.750000 7.850000 L 39.450000 7.850000 Z"/>
    <path style="fill:#805000"
          d="M 256.250000 7.150000 L 255.550000 7.150000 L 255.550000 7.850000 L 256.250000 7.850000 Z"/>
    <path style="fill:#805000"
          d="M 252.250000 7.150000 L 251.550000 7.150000 L 251.550000 7.850000 L 252.250000 7.850000 Z"/>
    <path style="fill:#805000"
          d="M 37.450000 9.150000 L 36.750000 9.150000 L 36.750000 9.850000 L 37.450000 9.850000 Z"/>
    <path style="fill:#805000"
          d="M 258.250000 9.150000 L 257.550000 9.150000 L 257.550000 9.850000 L 258.250000 9.850000 Z"/>
    <path style="fill:#805000"
          d="M 35.450000 9.150000 L 34.750000 9.150000 L 34.750000 9.850000 L 35.450000 9.850000 Z"/>
    <path style="fill:#805000"
          d="M 39.450000 9.150000 L 38.750000 9.150000 L 38.750000 9.850000 L 39.450000 9.850000 Z"/>
    <path style="fill:#805000"
          d="M 260.250000 9.150000 L 259.550000 9.150000 L 259.550000 9.850000 L 260.250000 9.850000 Z"/>
    <path style="fill:#805000"
          d="M 33.450000 9.150000 L 32.750000 9.150000 L 32.750000 9.850000 L 33.450000 9.850000 Z"/>
    <path style="fill:#805000"
          d="M 252.250000 9.150000 L 251.550000 9.150000 L 251.550000 9.850000 L 252.250000 9.850000 Z"/>
    <path style="fill:#805000"
          d="M 256.250000 9.150000 L 255.550000 9.150000 L 255.550000 9.850000 L 256.250000 9.850000 Z"/>
    <path style="fill:#805000"
          d="M 254.250000 9.150000 L 253.550000 9.150000 L 253.550000 9.850000 L 254.250000 9.850000 Z"/>
    <path style="fill:#805000"
          d="M 31.450000 9.150000 L 30.750000 9.150000 L 30.750000 9.850000 L 31.450000 9.850000 Z"/>
  </g>
  <g id="layer049_datatype000">
    <path style="fill:#800057"
          d="M 261.400000 0.000000 L 250.400000 0.000000 L 250.400000 11.000000 L 261.400000 11.000000 Z"/>
    <path style="fill:#800057"
          d="M 40.600000 0.000000 L 29.600000 0.000000 L 29.600000 11.000000 L 40.600000 11.000000 Z"/>
  </g>
</svg>
